<svg xmlns="http://www.w3.org/2000/svg" viewBox="0 0 48 48" fill="none">
  <!-- Gradient border: slightly larger path for stroke only -->
  <path
    d="M24 6C24 6 11.6 20.4 11.6 30.4C11.6 37.4 17.2 42.4 24 42.4C30.8 42.4 36.4 37.4 36.4 30.4C36.4 20.4 24 6 24 6Z"
    fill="none"
    stroke="url(#drip-gradient)"
    stroke-width="3"
  />
  <!-- Main drop fill: original size, white outline for contrast -->
  <path
    d="M24 6C24 6 12 20 12 30C12 37 17.373 42 24 42C30.627 42 36 37 36 30C36 20 24 6 24 6Z"
    fill="url(#drip-gradient)"
    stroke="#fff"
    stroke-width="1.2"
  />
  <!-- "I" in center (gradient) -->
  <rect x="22.5" y="18" width="3" height="12" rx="1.5" fill="url(#i-gradient)" opacity="0.97"/>
  <!-- "Q" as a pink gradient circle -->
  <circle cx="24" cy="29" r="5" stroke="url(#pink-gradient)" stroke-width="2" fill="none"/>
  <!-- Q-tail with pink gradient -->
  <path d="M27.6 32.6 L30 35" stroke="url(#pink-gradient)" stroke-width="2" stroke-linecap="round"/>
  <defs>
    <linearGradient id="drip-gradient" x1="24" y1="6" x2="24" y2="42" gradientUnits="userSpaceOnUse">
      <stop stop-color="#2dd4bf"/>
      <stop offset="1" stop-color="#0f766e"/>
    </linearGradient>
    <linearGradient id="pink-gradient" x1="19" y1="24" x2="29" y2="39" gradientUnits="userSpaceOnUse">
      <stop stop-color="#e879f9"/>
      <stop offset="1" stop-color="#a21caf"/>
    </linearGradient>
    <linearGradient id="i-gradient" x1="24" y1="18" x2="24" y2="30" gradientUnits="userSpaceOnUse">
      <stop stop-color="#ffffff"/>
      <stop offset="1" stop-color="#1f2937"/>
    </linearGradient>
  </defs>
</svg>
