<svg xmlns="http://www.w3.org/2000/svg" viewBox="0 0 32 32" fill="none">
  <!-- Background circle with DripIQ brand gradient -->
  <circle cx="16" cy="16" r="16" fill="url(#backgroundGradient)"/>
  
  <!-- Neuron Grid Pattern - Simplified for favicon -->
  <!-- Primary nodes arranged in 3x3 grid -->
  <circle cx="8" cy="8" r="1" fill="white" opacity="0.8"/>
  <circle cx="16" cy="8" r="1" fill="white" opacity="0.8"/>
  <circle cx="24" cy="8" r="1" fill="white" opacity="0.8"/>
  
  <circle cx="8" cy="16" r="1" fill="white" opacity="0.8"/>
  <!-- Center node - larger and with brand accent color -->
  <circle cx="16" cy="16" r="2" fill="#FFCB05"/>
  <circle cx="24" cy="16" r="1" fill="white" opacity="0.8"/>
  
  <circle cx="8" cy="24" r="1" fill="white" opacity="0.8"/>
  <circle cx="16" cy="24" r="1" fill="white" opacity="0.8"/>
  <circle cx="24" cy="24" r="1" fill="white" opacity="0.8"/>
  
  <!-- Connection lines creating neural network -->
  <g stroke="white" stroke-width="0.5" opacity="0.6" fill="none">
    <!-- Key connections for clarity at small size -->
    <line x1="8" y1="8" x2="16" y2="8"/>
    <line x1="16" y1="8" x2="24" y2="8"/>
    <line x1="8" y1="16" x2="14" y2="16"/>
    <line x1="18" y1="16" x2="24" y2="16"/>
    <line x1="8" y1="24" x2="16" y2="24"/>
    <line x1="16" y1="24" x2="24" y2="24"/>
    
    <line x1="8" y1="8" x2="8" y2="16"/>
    <line x1="8" y1="16" x2="8" y2="24"/>
    <line x1="16" y1="8" x2="16" y2="14"/>
    <line x1="16" y1="18" x2="16" y2="24"/>
    <line x1="24" y1="8" x2="24" y2="16"/>
    <line x1="24" y1="16" x2="24" y2="24"/>
    
    <!-- Diagonal connections for AI/neural network feel -->
    <line x1="8" y1="8" x2="14" y2="14"/>
    <line x1="18" y1="14" x2="24" y2="8"/>
    <line x1="8" y1="24" x2="14" y2="18"/>
    <line x1="18" y1="18" x2="24" y2="24"/>
  </g>
  
  <!-- Gradient definitions -->
  <defs>
    <linearGradient id="backgroundGradient" x1="0%" y1="0%" x2="100%" y2="100%">
      <stop offset="0%" style="stop-color:#1A1F36"/>
      <stop offset="50%" style="stop-color:#4361EE"/>
      <stop offset="100%" style="stop-color:#1A1F36"/>
    </linearGradient>
  </defs>
</svg> 